<?xml version="1.0" encoding="utf-8"?>
<!-- Generator: Adobe Illustrator 16.0.0, SVG Export Plug-In . SVG Version: 6.00 Build 0)  -->
<!DOCTYPE svg PUBLIC "-//W3C//DTD SVG 1.1//EN" "http://www.w3.org/Graphics/SVG/1.1/DTD/svg11.dtd">
<svg version="1.1" id="Layer_1" xmlns="http://www.w3.org/2000/svg" xmlns:xlink="http://www.w3.org/1999/xlink" x="0px" y="0px"
	 width="100px" height="74.707px" viewBox="0 0 100 74.707" enable-background="new 0 0 100 74.707" xml:space="preserve">
<path fill="#379EFF" d="M22.114,17.104h3.396c2.262,0,2.262-5.658,4.526-5.658h2.264h0.005h0.017h0.028h0.02h0.018h0.05h0.024h0.034
	h0.056h0.013h0.077h0.001h0.086h0.001h0.085h0.011h0.074h0.03h0.053h0.06h0.022h0.08h0.019h0.061h0.067h0.009h0.075h0.051h0.022
	h0.071h0.049h0.021h0.068h0.06h0.005h0.063h0.062h0.025h0.034h0.058h0.055h0.015h0.038h0.05h0.048h0.032h0.013h0.043h0.041h0.037
	h0.035h0.005h0.027h0.029h0.026h0.023h0.021h0.018h0.015h0.011h0.008l0,0h0.004h0.002h7.921c2.263,0,2.263,5.658,4.526,5.658h21.5
	c0-1.25,1.014-2.263,2.263-2.263h2.264c1.25,0,2.263,1.013,2.263,2.263h3.396c3.125,0,5.658,2.534,5.658,5.658V56.71
	c0,3.124-2.533,5.658-5.658,5.658h-56.58c-3.125,0.001-5.658-2.533-5.658-5.658V22.762C16.457,19.638,18.99,17.104,22.114,17.104
	L22.114,17.104z M61.722,22.762c-9.373,0-16.975,7.602-16.975,16.974c0,9.373,7.601,16.976,16.975,16.976
	c9.372,0,16.975-7.602,16.975-16.976C78.695,30.363,71.094,22.762,61.722,22.762L61.722,22.762z M30.036,28.42h6.79
	c1.25,0,2.263-1.014,2.263-2.263v-1.131c0-1.25-1.013-2.263-2.263-2.263h-6.79c-1.25,0-2.262,1.013-2.262,2.263v1.131
	C27.772,27.406,28.786,28.42,30.036,28.42z"/>
<path fill="#379EFF" d="M61.722,27.289c-6.874,0-12.448,5.574-12.448,12.447c0,6.874,5.574,12.449,12.448,12.449
	s12.447-5.575,12.447-12.449C74.169,32.862,68.596,27.289,61.722,27.289L61.722,27.289z"/>
</svg>
