<?xml version="1.0" encoding="utf-8"?>
<!-- Generator: Adobe Illustrator 16.0.0, SVG Export Plug-In . SVG Version: 6.00 Build 0)  -->
<!DOCTYPE svg PUBLIC "-//W3C//DTD SVG 1.1//EN" "http://www.w3.org/Graphics/SVG/1.1/DTD/svg11.dtd">
<svg version="1.1" id="Layer_1" xmlns="http://www.w3.org/2000/svg" xmlns:xlink="http://www.w3.org/1999/xlink" x="0px" y="0px"
	 width="100px" height="100px" viewBox="0 0 100 100" enable-background="new 0 0 100 100" xml:space="preserve">
<g>
	<path fill="#E90006" d="M88.992,73.77L56.928,18.231c-1.429-2.475-4.07-4-6.928-4c-2.858,0-5.498,1.525-6.928,4L11.008,73.77
		c-1.43,2.476-1.43,5.523,0,8c1.429,2.476,4.07,4,6.928,4h64.128c2.857,0,5.5-1.524,6.929-4
		C90.422,79.293,90.422,76.244,88.992,73.77z M17.936,77.77L50,22.231l32.064,55.537H17.936V77.77z"/>
	<path fill="#E90006" d="M46,40.706v16.692c0,2.209,1.791,4,4,4s4-1.791,4-4V40.706c0-2.209-1.791-4-4-4S46,38.497,46,40.706z"/>
	<circle fill="#E90006" cx="50" cy="68.471" r="4"/>
</g>
</svg>
