<?xml version="1.0" encoding="utf-8"?>
<!-- Generator: Adobe Illustrator 16.0.0, SVG Export Plug-In . SVG Version: 6.00 Build 0)  -->
<!DOCTYPE svg PUBLIC "-//W3C//DTD SVG 1.1//EN" "http://www.w3.org/Graphics/SVG/1.1/DTD/svg11.dtd">
<svg version="1.1" id="Layer_1" xmlns="http://www.w3.org/2000/svg" xmlns:xlink="http://www.w3.org/1999/xlink" x="0px" y="0px"
	 width="91.5px" height="97.6px" viewBox="0 0 91.5 97.6" enable-background="new 0 0 91.5 97.6" xml:space="preserve">
<g>
	<path fill="#3399FF" d="M86.6,10.3c0-0.1,0-0.1,0-0.1c-1.5-2-3.3-3.7-5.399-5.301V5c-1.7,1.3-3.4,2.7-5,4.1
		c-0.7-0.399-1.3-0.7-1.9-1c-0.8-0.399-1.6-0.8-2.5-1C71.5,7,71.2,6.9,70.9,6.9C70.7,4.7,70.5,2.5,70.2,0.3c-1-0.2-2-0.2-3.101-0.3
		c-0.3,0-0.6,0-0.8,0c-0.3,0-0.6,0-0.8,0c-1,0.1-1.9,0.1-2.8,0.3c-0.3,2.1-0.5,4.3-0.601,6.5C61.7,6.8,61.4,6.9,61,7
		c-0.1,0-0.2,0-0.3,0.1c-0.8,0.2-1.601,0.601-2.4,1C57.6,8.4,57,8.7,56.4,9.1C54.7,7.7,53.1,6.4,51.4,5c0,0,0,0-0.101-0.101
		C50.9,5.2,50.5,5.5,50.2,5.8c-0.7,0.5-1.3,1.1-1.8,1.7C47.5,8.3,46.8,9.3,46,10.3c0,0,0,0,0.1,0c1.3,1.7,2.7,3.3,4.1,5
		c-0.4,0.6-0.8,1.3-1.101,1.9C48.7,18,48.4,18.9,48.2,19.7c-0.2,0.399-0.3,0.8-0.3,1.1c-2.2,0.2-4.4,0.4-6.5,0.7
		c-0.2,1-0.3,2-0.3,3.1c0,1.5,0.1,3,0.4,4.4c2.1,0.2,4.2,0.399,6.4,0.6c0,0.4,0.1,0.8,0.3,1.101c0.2,0.899,0.5,1.699,0.899,2.6
		c0.4,0.7,0.7,1.4,1.2,2c-1.399,1.7-2.8,3.3-4.1,5c1.5,2.1,3.3,3.9,5.399,5.4V45.6c1.601-1.3,3.301-2.7,4.9-4.1h0.1
		c0.5,0.3,1.101,0.6,1.601,0.899c0.899,0.4,1.899,0.801,2.8,1c0.4,0.101,0.7,0.2,1,0.301c0.2,2.1,0.4,4.3,0.7,6.5
		c0.899,0.1,1.8,0.199,2.8,0.199c0.2,0,0.8,0,1.5,0c1.1,0,2.2-0.1,3.3-0.3c0.2-2.1,0.4-4.3,0.601-6.5c0.3-0.1,0.6-0.2,0.899-0.3l0,0
		c0.9-0.2,1.7-0.5,2.5-0.9C75,42.1,75.7,41.7,76.4,41.2c0,0.1,0,0.1,0.1,0.1c1.6,1.4,3.3,2.8,5,4.1c0.3-0.199,0.6-0.399,1-0.699
		c0.6-0.5,1.2-1.101,1.7-1.7c0.899-0.9,1.8-1.9,2.6-3c-1.399-1.7-2.8-3.4-4.2-5c0-0.101,0-0.101,0-0.101
		c0.301-0.5,0.601-1.1,0.9-1.699c0.3-0.801,0.7-1.601,0.9-2.4c0-0.1,0-0.2,0.1-0.2c0-0.399,0.1-0.7,0.2-0.899
		c2.2-0.2,4.399-0.4,6.5-0.601c0.2-1,0.2-2,0.3-3c0-0.3,0-0.6,0-0.899c0-0.2,0-0.5,0-0.801c-0.1-1-0.1-2-0.3-3
		C89.1,21.2,86.9,21,84.7,20.8c-0.101-0.3-0.2-0.6-0.2-0.9c-0.3-0.899-0.6-1.8-1-2.699c-0.3-0.601-0.7-1.301-1-1.9
		C83.8,13.7,85.2,12,86.6,10.3z M59.9,18.6c1.8-1.899,4-2.8,6.5-2.7C69,15.8,71.1,16.7,73,18.6c1.8,1.8,2.7,4,2.7,6.5
		c0,2.601-0.9,4.7-2.7,6.601c-1.9,1.8-4,2.699-6.6,2.699c-2.5,0-4.7-0.899-6.5-2.699c-1.801-1.9-2.7-4-2.7-6.601
		C57.2,22.6,58.1,20.4,59.9,18.6z"/>
	<path fill="#3399FF" d="M66.5,17.2c-2.2,0-4,0.8-5.6,2.3C59.4,21.1,58.6,22.9,58.6,25.1s0.801,4,2.301,5.601l0,0
		c1.6,1.6,3.399,2.399,5.6,2.399s4-0.8,5.6-2.399l0,0C73.7,29.1,74.4,27.3,74.4,25.1l0,0c0-2.2-0.7-4-2.301-5.6
		C70.5,18,68.7,17.2,66.5,17.2z M62.3,20.9c1.2-1.1,2.601-1.699,4.2-1.699s3,0.6,4.2,1.699c1.2,1.2,1.7,2.5,1.7,4.2l0,0
		c0,1.7-0.5,3.101-1.7,4.2c-1.2,1.2-2.601,1.8-4.2,1.8s-3-0.6-4.2-1.8c-1.1-1.1-1.7-2.5-1.7-4.2C60.6,23.5,61.2,22.1,62.3,20.9z"/>
	<path fill="#3399FF" d="M40.8,33.6c-0.4-0.2-0.7-0.3-1-0.3c-1.2-0.3-2.4-0.5-3.6-0.7c-1.1,2.7-2,5.3-2.9,7.9c-0.5,0-1,0-1.4,0
		c-0.2,0-0.3,0-0.4,0c-1.2,0.1-2.3,0.2-3.4,0.399c-0.9,0.101-1.8,0.4-2.7,0.7c-1.6-2.3-3.3-4.6-4.9-6.8c-0.1-0.1-0.1-0.1-0.1-0.1
		C19.8,34.9,19.2,35.1,18.7,35.4c-1,0.4-1.9,0.9-2.8,1.5c-1.4,0.7-2.7,1.601-3.9,2.7c0,0,0,0,0,0.101c1.2,2.5,2.3,5,3.5,7.5
		c-0.7,0.699-1.3,1.3-1.9,2.1c-0.8,0.8-1.5,1.8-2.1,2.8l0,0c-0.3,0.4-0.5,0.8-0.7,1.3C8,52.9,5.2,52.4,2.4,52
		c-0.5,1.2-1,2.399-1.4,3.7c-0.4,2-0.8,3.899-1,5.8c2.6,1,5.2,2,7.8,3c0,0.399,0,0.899,0,1.399C7.8,67,7.9,68.2,8.2,69.4
		c0.1,1,0.4,2,0.7,3C6.6,74,4.4,75.6,2.1,77.3c1.2,3,2.9,5.8,4.9,8.4c0,0,0,0,0.1,0c2.5-1.2,5-2.301,7.6-3.5l0,0
		c0.6,0.6,1.2,1.1,1.8,1.699c0.9,0.801,2,1.5,3.2,2.2c0.3,0.2,0.7,0.4,1.1,0.7c-0.5,2.7-0.9,5.5-1.3,8.3c1.1,0.5,2.2,0.9,3.4,1.2
		c0.3,0.1,0.9,0.3,1.9,0.5c1.4,0.4,2.8,0.6,4.1,0.8c1.1-2.7,2.1-5.3,3-8c0.4,0,0.8,0,1.2,0h0.1c1.2,0,2.3-0.1,3.4-0.3
		c1-0.2,2-0.5,3-0.8c0,0,0,0.1,0.1,0.1c1.6,2.3,3.3,4.601,4.9,6.9c0.5-0.3,1-0.5,1.4-0.7c1-0.4,1.9-0.9,2.8-1.4
		c1.5-0.899,2.9-1.899,4.2-3c-1.1-2.6-2.3-5.1-3.5-7.699l0,0c0.6-0.601,1.1-1.2,1.7-1.801C51.9,80,52.6,79,53.2,78.1
		c0-0.1,0.1-0.2,0.1-0.3c0.2-0.3,0.4-0.7,0.601-1c2.8,0.5,5.6,0.9,8.399,1.4c0.5-1.2,0.9-2.4,1.3-3.7c0.101-0.3,0.2-0.601,0.301-1
		c0.1-0.3,0.1-0.601,0.3-1c0.2-1.3,0.5-2.601,0.6-3.8c-2.6-1.101-5.3-2-7.899-3c0-0.4,0-0.7,0-1.2c0-1.2-0.101-2.5-0.4-3.7
		c-0.1-0.9-0.4-1.8-0.6-2.7c2.3-1.6,4.6-3.3,6.8-5c0,0,0,0,0.1,0c-1.2-3-2.8-5.8-5-8.399l0,0c-2.6,1.1-5.1,2.3-7.6,3.5
		c-0.7-0.7-1.4-1.4-2.101-2c-0.899-0.7-1.8-1.4-2.8-1.9c-0.3-0.3-0.7-0.5-1-0.7c0.4-2.8,0.9-5.6,1.3-8.399c-1.2-0.5-2.5-1-3.8-1.4
		C41.5,33.7,41.1,33.6,40.8,33.6z M22.2,71c-1.7-2.9-2.1-5.9-1.2-9.101c0.8-3.199,2.7-5.6,5.6-7.3c2.8-1.6,5.9-2,9-1.2
		c3.2,0.9,5.7,2.7,7.3,5.601c1.7,2.899,2.1,5.899,1.2,9.1c-0.8,3.2-2.7,5.601-5.5,7.2c-3,1.7-6,2.1-9.1,1.2
		C26.3,75.7,23.8,73.8,22.2,71z"/>
	<path fill="#3399FF" d="M22.8,62.4c-0.8,2.7-0.5,5.301,0.9,7.7h0.1c1.4,2.5,3.5,4,6.2,4.8c2.7,0.7,5.3,0.4,7.8-1l0,0
		c2.5-1.5,4-3.5,4.8-6.199V67.6c0.7-2.7,0.3-5.3-1.1-7.7c-1.4-2.5-3.5-4.1-6.2-4.8c-2.7-0.8-5.4-0.399-7.8,1
		C25,57.5,23.5,59.6,22.8,62.4z M28.8,58.4c1.9-1.1,3.8-1.399,5.8-0.8c2,0.5,3.6,1.7,4.7,3.601c1.1,1.8,1.3,3.8,0.8,5.8
		c-0.6,2-1.8,3.6-3.6,4.6V71.7c-1.9,1-3.8,1.3-5.8,0.699c-2.1-0.5-3.6-1.699-4.7-3.6c-1-1.8-1.3-3.7-0.8-5.8
		C25.8,61,27,59.5,28.8,58.4z"/>
</g>
</svg>
